<svg width="113" height="50" viewBox="0 0 113 50" fill="none" xmlns="http://www.w3.org/2000/svg">
<path opacity="0.5" d="M91.7171 22.7544H86.312C85.0351 22.7544 84 23.7895 84 25.0664V28.1595C84 29.4364 85.0351 30.4715 86.312 30.4715H91.7171C92.994 30.4715 94.0291 29.4364 94.0291 28.1595V25.0664C94.0291 23.7895 92.994 22.7544 91.7171 22.7544Z" fill="#FFE5B3"/>
<path opacity="0.5" d="M56.7171 22.7544H51.312C50.0351 22.7544 49 23.7895 49 25.0664V28.1595C49 29.4364 50.0351 30.4715 51.312 30.4715H56.7171C57.994 30.4715 59.0291 29.4364 59.0291 28.1595V25.0664C59.0291 23.7895 57.994 22.7544 56.7171 22.7544Z" fill="#FFE5B3"/>
<path opacity="0.5" d="M22.7171 22.7544H17.312C16.0351 22.7544 15 23.7895 15 25.0664V28.1595C15 29.4364 16.0351 30.4715 17.312 30.4715H22.7171C23.994 30.4715 25.0291 29.4364 25.0291 28.1595V25.0664C25.0291 23.7895 23.994 22.7544 22.7171 22.7544Z" fill="#FFE5B3"/>
<path d="M19.6418 2.47754C21.5737 2.47754 23.4866 2.85805 25.2715 3.59735C27.0563 4.33665 28.678 5.42026 30.0441 6.7863C31.4101 8.15235 32.4937 9.77408 33.233 11.5589C33.9723 13.3437 34.3528 15.2567 34.3528 17.1886V38.5769C34.3528 40.8168 33.463 42.9649 31.8792 44.5487C30.2954 46.1326 28.1472 47.0224 25.9073 47.0224H11.988C10.671 47.0224 9.36687 46.763 8.15009 46.259C6.93331 45.755 5.82771 45.0162 4.89643 44.0849C3.96514 43.1537 3.22641 42.0481 2.7224 40.8313C2.21839 39.6145 1.95898 38.3104 1.95898 36.9933V20.1603C1.95898 15.4706 3.82199 10.9729 7.13816 7.65671C10.4543 4.34054 14.952 2.47754 19.6418 2.47754Z" stroke="#4D2C19" stroke-width="2.63923"/>
<path d="M100.769 47.0277H86.829C84.5891 47.0277 82.441 46.1379 80.8571 44.5541C79.2733 42.9702 78.3835 40.8221 78.3835 38.5822V17.1886C78.3835 13.287 79.9334 9.54522 82.6923 6.78636C85.4511 4.02751 89.1929 2.4776 93.0945 2.4776C97.7843 2.4776 102.282 4.3406 105.598 7.65677C108.914 10.9729 110.777 15.4706 110.777 20.1604V37.0198C110.777 39.6796 109.721 42.2306 107.84 44.1114C105.959 45.9922 103.408 47.0488 100.748 47.0488L100.769 47.0277Z" stroke="#4D2C19" stroke-width="2.63923"/>
<path d="M55.9836 1.75439C60.8988 1.75439 65.6126 3.70694 69.0882 7.18248C72.5637 10.658 74.5163 15.3719 74.5163 20.287V39.4425C74.5163 41.6446 73.6415 43.7565 72.0844 45.3136C70.5273 46.8708 68.4153 47.7455 66.2133 47.7455H46.7305C44.5284 47.7455 42.4165 46.8708 40.8594 45.3136C39.3023 43.7565 38.4275 41.6446 38.4275 39.4425V19.3105C38.4275 14.6543 40.2771 10.1889 43.5696 6.89646C46.862 3.60405 51.3274 1.75439 55.9836 1.75439Z" stroke="#4D2C19" stroke-width="2.63923"/>
</svg>
