<svg width="56" height="57" viewBox="0 0 56 57" fill="none" xmlns="http://www.w3.org/2000/svg">
<path opacity="0.5" d="M51.2777 19.0387C50.9121 20.3774 50.2025 22.9742 49.4982 25.5602C49.3 26.2369 49.0483 26.8967 48.7455 27.5334C47.3853 30.5065 47.1648 33.6462 47.0519 36.8236C46.896 41.2161 46.3154 45.5602 44.5949 49.7268C44.2371 50.5907 43.7826 51.4114 43.2401 52.1731C40.8799 55.501 36.2509 55.6408 33.8369 52.329C32.8725 50.8726 32.128 49.282 31.6272 47.6086C30.8638 45.372 30.3692 43.0494 29.6971 40.786C29.4622 40.0392 29.1257 39.3282 28.6971 38.6731C27.3745 36.6247 24.6434 36.3989 23.2079 38.3774C22.2443 39.8333 21.4761 41.4095 20.9229 43.0655C19.8853 45.7967 19.0251 48.5924 18.0251 51.3397C17.758 51.9615 17.383 52.5312 16.9176 53.0225C16.4719 53.5686 15.9132 54.0117 15.2799 54.3211C14.6465 54.6305 13.9537 54.7989 13.249 54.8148C12.5443 54.8306 11.8445 54.6935 11.1979 54.4129C10.5513 54.1322 9.97331 53.7147 9.50359 53.1892C7.8026 51.3282 6.68153 49.0113 6.27779 46.5225C5.57128 42.9125 5.07224 39.265 4.78315 35.5979C4.62019 32.9505 4.09376 30.3382 3.21865 27.8344C2.14338 24.8774 1.06811 21.8774 0.632631 18.8129C-0.0985513 13.528 2.53048 9.45811 7.14875 6.52801C9.76165 4.86672 12.7132 5.07101 15.6218 5.83982C17.1111 6.22692 18.5896 6.64091 20.0412 7.13016C23.6946 8.39562 27.6639 8.4183 31.3315 7.19467C33.1595 6.61403 35.0304 6.11943 36.9068 5.67857C38.5504 5.26011 40.2714 5.24898 41.9203 5.64622C43.5693 6.04346 45.0963 6.83707 46.3691 7.95813C49.6003 10.6355 51.2939 13.9312 51.2777 19.0387Z" fill="#FFE5B3"/>
<path d="M23.9722 4.52271C25.0804 4.77325 26.161 5.13345 27.198 5.59797C28.4273 6.18151 29.6037 6.87045 30.7141 7.65708C32.0743 8.47966 34.3324 9.19474 38.1926 8.49044" stroke="#4D2C19" stroke-width="2.68817" stroke-miterlimit="10" stroke-linecap="round"/>
<path d="M53.9669 16.8614C53.6013 18.3022 52.8917 21.0925 52.1874 23.8506C51.9918 24.5856 51.7402 25.3046 51.4347 26.0011C50.0745 29.2269 49.854 32.5764 49.7411 36.0012C49.5852 40.7216 49.0046 45.399 47.2841 49.8506C46.9301 50.7739 46.4758 51.6554 45.9293 52.4796C43.5691 56.0656 38.9401 56.2108 36.5261 52.6516C35.5548 51.0701 34.811 49.3598 34.3164 47.571C33.553 45.1624 33.0584 42.6678 32.3863 40.2269C32.1536 39.4302 31.8174 38.6674 31.3863 37.9581C30.0637 35.7538 27.3326 35.5119 25.8971 37.6409C24.9287 39.2203 24.1611 40.9144 23.6121 42.6839C22.5745 45.6248 21.7143 48.6301 20.7143 51.5818C20.452 52.2449 20.0773 52.8578 19.6068 53.3936C17.6014 55.8989 14.3111 55.9849 12.1928 53.5764C10.4719 51.532 9.35479 49.0484 8.967 46.4043C8.26011 42.5162 7.76118 38.593 7.47236 34.6517C7.31153 31.8112 6.78572 29.0031 5.90786 26.2969C4.83259 23.1141 3.75732 19.8829 3.32184 16.5872C2.59066 10.9044 5.21968 6.52271 9.83796 3.37218C12.4509 1.58724 15.4024 1.80766 18.311 2.63024C19.8003 3.04959 21.2788 3.4905 22.7304 4.01738C26.3661 5.3811 30.3685 5.40581 34.0207 4.08721C35.8487 3.46355 37.7196 2.92592 39.596 2.47431C43.1713 1.58184 46.311 2.47434 49.0583 4.92594C52.2895 7.81841 53.9831 11.356 53.9669 16.8614Z" stroke="#4D2C19" stroke-width="3" stroke-miterlimit="10" stroke-linecap="round"/>
</svg>
